# xmcd CD database file
#
# Track frame offsets:
#	150
#	37462
#	57445
#	82252
#	102495
#	121200
#	137465
#	157552
#
# Disc length: 2368 seconds
#
# Revision: 0
# Processed by: cddbd v1.5.1PL2 Copyright (c) Steve Scherf et al.
# Submitted via: CDex 1.51
#
DISCID=69093e08
DTITLE=Billy Taylor - I wish I knew...
DYEAR=1900
DGENRE=Jazz
TTITLE0=Pensativa
TTITLE1=I wish I knew how it would feel to be free
TTITLE2=Morning
TTITLE3=T.N.T
TTITLE4=Hard to find
TTITLE5=Lonesome Lover
TTITLE6=Sunny
TTITLE7=Cag
EXTD=
EXTT0=
EXTT1=
EXTT2=
EXTT3=
EXTT4=
EXTT5=
EXTT6=
EXTT7=
PLAYORDER=
